<?xml version="1.0" encoding="UTF-8"?> <!-- Generator: Adobe Illustrator 16.0.0, SVG Export Plug-In . SVG Version: 6.00 Build 0) --> <svg xmlns="http://www.w3.org/2000/svg" xmlns:xlink="http://www.w3.org/1999/xlink" version="1.1" x="0px" y="0px" width="5000px" height="2608.667px" viewBox="0 0 5000 2608.667" xml:space="preserve"> <g id="Layer_1"> </g> <g id="Layer_2"> <path fill="#FFE9F1" d="M2581.215,1494.638C2003.263,1086.678,1389.704,81.167,766.457,752.239 C458.185,1058.41,193.67,1639.535,94.263,2047.052c-46.252,195.552-58.14,354.082-29.502,487.7h2919.503 c94.498-197.244,127.346-378.078,105.053-503.798C3053.314,1798.976,2860.842,1721.425,2581.215,1494.638z"></path> <g> <g> <defs> <path id="SVGID_1_" d="M4955.748,1156.104c0,490.092-397.293,887.391-887.392,887.391 c-490.082,0-887.382-397.299-887.382-887.391c0-490.094,397.3-887.396,887.382-887.396 C4558.455,268.708,4955.748,666.01,4955.748,1156.104z"></path> </defs> <use xlink:href="#SVGID_1_" overflow="visible" fill="#FFECCE"></use> <clipPath id="SVGID_2_"> <use xlink:href="#SVGID_1_" overflow="visible"></use> </clipPath> <path clip-path="url(#SVGID_2_)" fill="#212957" d="M3717.797,1532.728c43.648,126.391,73.472,390.111,122.711,540.735h600.338 l39.486-321.617c0,0,145.643,12.047,157.768-26.05c92.033-289.236,179.676-565.21-165.434-749.269 c-73.539-39.216-526.984-26.23-526.984-26.23s-298.003,52.374-660.262,553.806 C3273.35,1520.812,3667.38,1386.727,3717.797,1532.728z"></path> </g> <path fill="#F7B68B" d="M3887.605,1172.797l-102.9,41.919c0,0-39.697,18.449-30.485,23.816 c11.427,6.672,91.465-18.103,91.465-18.103s22.863,9.53,57.174,32.394c34.302,22.875,95.281,19.059,95.281,19.059 s209.618,407.824,396.373,476.421c186.763,68.61,213.435,38.116,240.112-11.438c26.688-49.552,21.007-177.357-119.229-247.476 c-177.947-88.974-475.335-240.375-475.335-240.375l-91.473-96.232l-64.787-2.858c0,0-26.689,19.058-41.922,30.485"></path> <path fill="#0561FC" d="M3736.871,1438.662c4.598,12.619-1.912,22.889-14.535,22.889h-606.009 c-12.624,0-26.59-10.27-31.185-22.889l-153.98-419.295c-4.598-12.632,1.912-19.105,14.533-19.105h606.012 c12.623,0,26.587,6.474,31.185,19.105L3736.871,1438.662z"></path> <path fill="#0561FC" d="M3957.963,1505.964c0,12.635-11.557,21.484-24.197,21.484h-808.834c-12.632,0-23.646-8.85-23.646-21.484 v-20.005c0-12.623,11.015-24.408,23.646-24.408h808.834c12.641,0,24.197,11.785,24.197,24.408V1505.964z"></path> <path fill="#EC9568" d="M3605.57,1527.448h-434.489c0,0-113.326,52.947-5.718,139.961c87.908,71.088,183.923,21.319,232.52,1.316 c48.589-20.016,201.979-112.162,201.979-112.162l68.602,8.211l85.756-40.2c0,0-20.022-11.522-45.747-0.084 c-25.725,11.421-40.009,8.521-40.009,8.521l-25.725-14.323l17.156-20.023l8.568-20.009l-40.028,22.969L3605.57,1527.448z"></path> <path fill="#F7B68B" d="M3637.821,1534.317c0,0-309.294,29.771-386.995,37.628c-51.392,5.206-98.865,26.826-112.141,54.121 c5.811,12.512,9.854,31.479,26.678,42.037c92.284,57.932,170.777,34.121,219.374,14.106 c48.586-20.003,215.125-125.47,215.125-125.47l68.638,8.245C3671.708,1559.065,3643.621,1535.342,3637.821,1534.317z"></path> <path fill="#EC9568" d="M4627.638,1749.165c-20.216,14.121-26.79,25.08-59.656,20.695 c-50.378-6.712-207.973-96.669-282.658-153.382c-118.329-89.839-280.345-343.713-286.661-343.599 c11.271,21.719,214.345,408.753,395.851,475.423C4565.206,1811.012,4602.174,1790.913,4627.638,1749.165z"></path> </g> <g> <g> <path fill="#0561FC" d="M2392.677,2227.858c-3.272,12.492-16.062,19.977-28.573,16.702l-96.18-25.188 c-12.503-3.281-19.987-16.07-16.715-28.564l365.954-1397.644c3.272-12.504,16.07-19.982,28.563-16.715l96.191,25.19 c12.503,3.273,19.977,16.062,16.713,28.564L2392.677,2227.858z"></path> <g> <path fill="#0450CF" d="M2353.771,2237.199c-2.631,0-5.305-0.336-7.981-1.03l-96.18-25.189l4.108-15.729l96.191,25.188 c8.125,2.124,16.511-2.749,18.653-10.904l365.941-1397.648l15.73,4.114l-365.952,1397.664 C2380.57,2227.812,2367.764,2237.199,2353.771,2237.199z"></path> </g> <g> <path fill="#0450CF" d="M2801.508,2544.166h-368.619v-28.241h365.979c8.56,0,67.169-17.533,67.169-99.997 c0-55.294-190.7-558.61-318.894-883.093l30.247-12.193c32.866,83.215,321.163,815.165,321.163,894.417 c0,92.638-62.698,125.218-95.86,130.146L2801.508,2544.166z"></path> </g> <path fill="#0450CF" d="M2329.333,2544.166v-17.182c0-12.928-4.522-11.06-17.438-11.06h-579.084 c-12.916,0-43.631-1.868-43.631,11.06v17.182H2329.333z"></path> </g> <g> <path fill="#212A54" d="M1188.176,2218.498c33.069,6.061,154.772,42.907,250.832-57.19c96.062-100.099,0-209.73,213.48-290.769 c213.479-81.033,277.521-200.195,117.409-381.322c-160.095-181.136-26.678-185.903-37.361-338.432 c-10.666-152.537-352.236-371.798-624.417-185.898c-168.304,114.945-234.816,147.766-122.749,481.421 c113.997,339.364-154.764,233.579-213.482,386.097C713.19,1984.94,980.027,2180.363,1188.176,2218.498z"></path> <path fill="#EC9568" d="M1535.98,2240.196l148.335,218.811c0,0,111.27-166.886,96.43-226.23 c-14.829-59.345-81.582-159.469-107.545-211.385"></path> <path fill="#DD000B" d="M1574.796,1817.64l116.94,214.876l-166.879,267.022l-85.295-200.269 C1439.562,2099.27,1421.652,1694.534,1574.796,1817.64z"></path> <path fill="#FD2227" d="M1544.771,1803.876c0,0-48.046-20.142-129.114-56.178c-33.389-14.826-90.075-19.073-90.075-19.073 s-198.193,19.476-387.335,267.945c-189.127,248.479-414.714,538.182-414.714,538.182h641.588 C1165.119,2534.752,1589.798,2290.29,1544.771,1803.876z"></path> <path fill="#F7B68B" d="M1684.316,2459.007c0,0,44.516-393.11,59.345-437.615c14.837-44.514,11.124-140.936,63.047-33.381 c51.925,107.543,51.925,359.732,55.621,433.901C1866.043,2496.094,1702.86,2496.094,1684.316,2459.007z"></path> <path fill="#F7B68B" d="M1339.427,2203.11l-9.276,172.449l372.709,40.79l218.811-35.229l81.593-3.713l140.935,89.011 c0,0-0.957,7.424-18.552,7.424c-3.707,0,12.981,10.194,12.981,10.194s-17.615,25.957-103.839-4.638 c-9.414-3.337,31.524,24.104,31.524,24.104s0,8.35-37.557,6.263c-12.512-0.699-25.402-11.823-44.036-11.823 c-19.463,0-64.895-0.93-90.858,2.781c-25.961,3.709-45.488,15.182-86.225,19.476c-52.852,5.552-88.081-12.063-88.081-12.063 s-361.596,47.291-476.559,50.996c-114.963,3.715-166.888,7.419-159.477-48.21c7.426-55.625,18.55-359.729,18.55-359.729 L1339.427,2203.11z"></path> <path fill="#F7B68B" d="M1780.746,1944.74c0,0-37.085-23.483-92.715-34.607c-55.629-11.133-107.545,55.63-137.211,59.336 c-29.676,3.705-140.926,63.047-152.059,70.458c-11.124,7.42,0,18.542,44.505,3.713c44.497-14.837,107.554-29.67,107.554-29.67 l-70.458,55.634l-33.392,66.742c0,0,21.016,9.895,38.337-11.115c15.812-19.213,24.711-37.085,24.711-37.085l66.762-40.799 l-37.085,74.171l-44.516,74.171c0,0,34.623,21.018,63.049-44.494c15.904-36.646,66.762-63.049,66.762-63.049l-22.257,59.333 l-18.543,42.034c0,0,16.311,23.765,33.372-4.946c27.213-45.737,48.212-79.119,48.212-79.119s74.18-35.844,100.143-84.056"></path> <line fill="none" stroke="#9AC7F7" stroke-width="8.4176" stroke-miterlimit="10" x1="1587.905" y1="2388.54" x2="1554.516" y2="2544.304"></line> <line fill="none" stroke="#FD2227" stroke-width="8.4176" stroke-miterlimit="10" x1="1617.563" y1="2392.244" x2="1599.021" y2="2533.169"></line> <path fill="#EC9568" d="M2019.167,2407.644c0,0,65.301,33.023,100.586,48.781l24.444,9.993c0,0-0.957,7.424-18.552,7.424 l-85.463-48.933l-78.069-3.761L2019.167,2407.644z"></path> <g> <path fill="#EC9568" d="M2066.313,2504.102c0,0-0.02,1.719-0.497,1.719c-0.202,0-0.45,0-0.635,0l-16.244-13.377 C2057.458,2498.456,2066.313,2504.102,2066.313,2504.102z"></path> <path fill="#EC9568" d="M1957.618,2459.438h67.543c0,0,49.352,26.184,88.01,37.146c-15.713,1.431-40.379-2.386-78.383-15.872 c-0.691-0.248-1.05-0.938-1.224-0.863l-18.718-12.771L1957.618,2459.438z"></path> </g> <path fill="#EC9568" d="M1302.561,2328.074c0,0-72.058,4-120.102,38.034c-48.036,34.024-70.054,84.069-94.077,92.072 c-0.155,0.049-0.303,0.009-0.46,0.045c4.055-63.002,8.349-161.198,11.135-229.521 C1165.248,2214.766,1264.72,2320.868,1302.561,2328.074z"></path> <path fill="#DD000B" d="M1322.584,1865.673c0,0,33.519,367.104,37.232,444.98c3.715,77.887-333.773-14.832-333.773-14.832 s27.817-215.104,64.903-337.487C1128.034,1835.951,1174.238,1739.579,1322.584,1865.673z"></path> <g> <path fill="#F7B68B" d="M1296.795,1731.809c55.382-28.628,27.562-165.913,10.784-233.063 c-19.066-76.266,185.892,61.965,185.892,61.965s-61.973,61.974-47.667,138.231c7.207,38.438,26.891,70.651,71.938,88.67 c-17.257,99.814-24.722,172.884-65.054,177.489C1400.727,1971.016,1343.435,1879.166,1296.795,1731.809z"></path> <path fill="#EC9568" d="M1454.508,1721.836c-46.095-24.602-88.219-55.217-125.194-90.787 c-2.005-46.652-13.276-98.416-21.734-132.303c-19.066-76.266,185.892,61.965,185.892,61.965s-61.973,61.974-47.667,138.231 C1447.31,1707.014,1450.343,1714.573,1454.508,1721.836z"></path> <path fill="#F7B68B" d="M1507.767,993.487c0,0,383.584,633.427-52.43,586.29c-176.366-19.066-190.662-95.332-209.728-147.763 c-19.069-52.438-81.04,33.37-95.346-71.499c-14.287-104.87,19.075-100.099,66.745-52.435 c47.667,47.663,66.743,23.833,71.506-52.436c4.763-76.268-66.745-95.324,76.249-95.324 C1507.767,1160.321,1560.206,1107.887,1507.767,993.487z"></path> <path fill="none" stroke="#212A54" stroke-width="2.726" stroke-miterlimit="10" d="M1479.222,1355.744 c0,0,66.726,133.473,81.029,0"></path> <path fill="none" stroke="#212A54" stroke-width="2.726" stroke-miterlimit="10" d="M1369.581,1374.813 c-33.409-38.135-4.763-228.797,81.029-23.836"></path> <path fill="none" stroke="#212A54" stroke-width="2.726" stroke-miterlimit="10" d="M1555.488,1317.619 c0,0-0.054-200.2,71.488-19.077"></path> <path fill="none" stroke="#212A54" stroke-width="2.726" stroke-miterlimit="10" d="M1469.679,1184.155 c0,0-4.763,100.092,57.202,176.36"></path> </g> </g> </g> <g> <path fill="#F7B68B" d="M4028.266,985.765c0.12,0.027,0.377-0.009,0.43,0.052c8.111,8.439-0.467,99.687,57.744,124.749 c16.927,2.822,32.592,4.634,47.062,5.524c9.048-0.983,18.829-2.831,29.64-5.929c141.671-40.552,67.369-197.699,77.731-198.352 c-6.004-6.532-12.402-12.532-19.131-17.795c-51.364-40.129-65.706-194.693-65.706-194.693s-228.724,28.091-143.547,116.688 C4055.514,860.763,4043.572,928.141,4028.266,985.765z"></path> <path fill="#212A54" d="M4021.949,702.277c0,0,235.408-70.587,295.174-133.479c59.728-62.91-60.227-54.127-77.585-163.128 c-17.356-108.986-106.652-383.777-157.354-214.841c-50.692,168.952,37.38,223.62,27.781,145.422 c-9.597-78.19,19.692-292.14-201.252-249.128c-220.928,42.994-279.652,195.07-85.545,240.684 c194.138,45.621-244.653-166.41-216.881-20.993c27.772,145.422,156.601,111.745,201.317,104.271 c44.727-7.475-193.302-87.397-148.926,63.92C3703.059,626.34,3844.168,676.472,4021.949,702.277z"></path> <path fill="#EC9568" d="M4182.145,697.667c0,0-35.736,49.271,37.077,213.683c0.073,0.18-96.733,56.76-170.601-10.063 c-0.351-26.96-8.45-56.493-36.133-85.278C3927.312,727.412,4182.145,697.667,4182.145,697.667z"></path> <path fill="#F7B68B" d="M3820.338,393.572c0,0-24.602,116.937,25.678,289.574c50.271,172.638,144.943,208.092,286.926,155.814 c141.975-52.283,130.527-230.079,119.451-272.364c-11.088-42.304,131.574-34.506,82.216-127.021 c-49.369-92.532-101.836-43.617-101.376-3.559c0.45,40.057-15.438,94.435-52.245,68.933 c-36.82-25.503-4.505-189.653-70.075-152.375C4045.355,389.836,3929.325,445.354,3820.338,393.572z"></path> <path fill="none" stroke="#212A54" stroke-width="2.7783" stroke-miterlimit="10" d="M3968.259,581.338 c-0.043,23.306-3.399,45.729-12.558,63.266"></path> <path fill="none" stroke="#212A54" stroke-width="2.7783" stroke-miterlimit="10" d="M4066.851,688.901 c0,0-8.063,53.698-71.34,50.789"></path> <path fill="none" stroke="#212A54" stroke-width="2.7783" stroke-miterlimit="10" d="M3951.208,569.047 c-1.738,50.411-44.02,89.875-94.428,88.123c-50.417-1.747-89.875-44.014-88.12-94.43c1.738-50.402,44.011-89.864,94.445-88.109 C3913.505,476.359,3952.955,518.639,3951.208,569.047z"></path> <path fill="none" stroke="#212A54" stroke-width="2.7783" stroke-miterlimit="10" d="M4158.004,535.068 c-1.756,50.406-44.028,89.865-94.428,88.128c-50.417-1.747-89.875-44.027-88.117-94.435c1.736-50.398,44.008-89.86,94.416-88.119 C4120.283,442.385,4159.739,484.661,4158.004,535.068z"></path> <line fill="none" stroke="#212A54" stroke-width="2.7783" stroke-miterlimit="10" x1="3944.384" y1="554.485" x2="3992.594" y2="548.554"></line> </g> <path fill="none" stroke="#00046D" stroke-width="8.332" stroke-miterlimit="10" stroke-dasharray="33.3279" d="M2004.623,579.48 c0,0,367.129-663.652,1200.236-282.401"></path> <g> <path fill="#FCCC42" d="M3571.988,534.277c0,85.779-69.539,155.323-155.322,155.323h-461.307 c-85.783,0-155.322-69.544-155.322-155.323v-0.019c0-85.783,69.539-155.322,155.322-155.322h461.307 c85.783,0,155.322,69.539,155.322,155.322V534.277z"></path> <polygon fill="#FCCC42" points="3393.12,813.729 3393.12,614.288 3196.769,614.288 "></polygon> </g> <line fill="none" stroke="#FFFFFF" stroke-width="8.547" stroke-miterlimit="10" x1="2997.732" y1="538.975" x2="3374.293" y2="538.975"></line> <path fill="#FD2227" d="M1660.938,807.285c0,85.778,69.537,155.323,155.32,155.323h461.307 c85.784,0,155.323-69.545,155.323-155.323v-0.019c0-85.784-69.54-155.323-155.323-155.323h-461.307 c-85.783,0-155.32,69.539-155.32,155.323V807.285z"></path> <polygon fill="#FD2227" points="1839.805,1086.735 1839.805,887.296 2036.156,887.296 "></polygon> <line fill="none" stroke="#FFFFFF" stroke-width="8.547" stroke-miterlimit="10" x1="2235.194" y1="811.981" x2="1858.632" y2="811.981"></line> </g> </svg> 