<?xml version="1.0" encoding="UTF-8"?> <!-- Generator: Adobe Illustrator 16.0.0, SVG Export Plug-In . SVG Version: 6.00 Build 0) --> <svg xmlns="http://www.w3.org/2000/svg" xmlns:xlink="http://www.w3.org/1999/xlink" version="1.1" x="0px" y="0px" width="1024px" height="683px" viewBox="0 0 5000 3333.332" xml:space="preserve"> <g id="Layer_1"> </g> <g id="Layer_2"> <path fill="#EAF4FE" d="M3937.848,1523.506C3087.725,923.424,2185.232-555.598,1268.491,431.492 c-453.454,450.355-842.52,1304.145-988.745,1903.565c-68.024,287.644-85.52,522.449-43.385,716.364h4294.32 c139.014-289.744,187.324-555.122,154.521-740.053C4632.258,1970.158,4349.148,1857.084,3937.848,1523.506z"></path> <g> <path fill="#FFFFFF" d="M2364.953,1773.899c0,28.392-23.003,51.397-51.364,51.397H900.07c-28.395,0-51.418-23.006-51.418-51.397 V591.696c0-28.374,23.023-51.414,51.418-51.414h1413.519c28.361,0,51.364,23.04,51.364,51.414V1773.899z"></path> <path fill="#0561FC" d="M848.652,726.127V591.696c0-28.374,23.023-51.414,51.418-51.414h1413.519 c28.361,0,51.364,23.04,51.364,51.414v134.431"></path> <g> <rect x="1440.518" y="925.672" fill="#C5E1F9" width="102.783" height="102.78"></rect> <rect x="1646.094" y="925.672" fill="#C5E1F9" width="102.804" height="102.78"></rect> <rect x="1851.719" y="925.672" fill="#C5E1F9" width="102.802" height="102.78"></rect> <rect x="2057.305" y="925.672" fill="#9AC7F7" width="102.802" height="102.78"></rect> <rect x="1029.323" y="1131.277" fill="#C5E1F9" width="102.749" height="102.803"></rect> <rect x="1234.893" y="1131.277" fill="#C5E1F9" width="102.794" height="102.803"></rect> <rect x="1440.518" y="1131.277" fill="#9FC400" width="102.783" height="102.803"></rect> <rect x="1646.094" y="1131.277" fill="#9FC400" width="102.804" height="102.803"></rect> <rect x="1851.719" y="1131.277" fill="#C5E1F9" width="102.802" height="102.803"></rect> <rect x="2057.305" y="1131.277" fill="#9AC7F7" width="102.802" height="102.803"></rect> <rect x="1029.323" y="1336.863" fill="#69AEEB" width="102.749" height="102.805"></rect> <rect x="1234.893" y="1336.863" fill="#69AEEB" width="102.794" height="102.805"></rect> <rect x="1440.518" y="1336.863" fill="#69AEEB" width="102.783" height="102.805"></rect> <rect x="1646.094" y="1336.863" fill="#C5E1F9" width="102.804" height="102.805"></rect> <rect x="1851.719" y="1336.863" fill="#0561FC" width="102.802" height="102.805"></rect> <rect x="2057.305" y="1336.863" fill="#9AC7F7" width="102.802" height="102.805"></rect> <rect x="1029.323" y="1542.461" fill="#C5E1F9" width="102.749" height="102.819"></rect> <rect x="1234.893" y="1542.461" fill="#C5E1F9" width="102.794" height="102.819"></rect> <rect x="1440.518" y="1542.461" fill="#C5E1F9" width="102.783" height="102.819"></rect> </g> <line fill="none" stroke="#C5E1F9" stroke-width="16.4909" x1="1055.007" y1="977.083" x2="1106.399" y2="977.083"></line> <line fill="none" stroke="#C5E1F9" stroke-width="16.4909" x1="1260.604" y1="977.083" x2="1312.005" y2="977.083"></line> <line fill="none" stroke="#C5E1F9" stroke-width="16.4909" x1="2083.014" y1="1593.862" x2="2134.39" y2="1593.862"></line> <line fill="none" stroke="#C5E1F9" stroke-width="16.4909" x1="1877.41" y1="1593.862" x2="1928.812" y2="1593.862"></line> <line fill="none" stroke="#C5E1F9" stroke-width="16.4909" x1="1671.841" y1="1593.862" x2="1723.214" y2="1593.862"></line> <line fill="none" stroke="#FFFFFF" stroke-width="16.4909" x1="1414.059" y1="643.079" x2="1876.679" y2="643.079"></line> <line fill="none" stroke="#FFFFFF" stroke-width="16.4909" x1="951.463" y1="643.079" x2="1002.83" y2="643.079"></line> <line fill="none" stroke="#FFFFFF" stroke-width="16.4909" x1="2210.778" y1="643.079" x2="2262.18" y2="643.079"></line> <g> <rect x="848.652" y="727.844" fill="#EAF4FE" width="1516.301" height="36.094"></rect> </g> </g> <g> <path fill="#212A54" d="M2870.256,2290.224c62.142,179.946,104.604,557.221,174.695,770.56h854.729l56.218-458.592 c0,0,207.353,16.807,224.616-37.436c131.025-411.795,255.809-804.873-235.537-1066.925 c-104.696-55.839-750.28-37.436-750.28-37.436s-424.272,74.872-940.031,788.769 C2237.484,2272.955,2798.474,2082.356,2870.256,2290.224z"></path> <path fill="#F7B68B" d="M3112.016,1777.084l-146.508,59.686c0,0-56.508,26.264-43.402,33.908 c16.27,9.501,130.222-25.768,130.222-25.768s32.556,13.563,81.398,46.117c48.841,32.564,135.658,27.137,135.658,27.137 s298.437,580.622,564.327,678.287c265.899,97.676,303.876,54.262,341.858-16.287c37.983-70.539,29.896-252.504-169.759-352.332 c-253.352-126.686-676.734-342.234-676.734-342.234l-130.241-137.011l-92.236-4.067c0,0-37.994,27.131-59.69,43.413"></path> <path fill="#0561FC" d="M2897.41,2156.699c6.545,17.977-2.723,33.696-20.7,33.696h-862.781c-17.98,0-37.865-15.72-44.41-33.696 l-219.223-600.274c-6.544-17.977,2.723-30.516,20.7-30.516h862.791c17.969,0,37.854,12.539,44.4,30.516L2897.41,2156.699z"></path> <path fill="#0561FC" d="M3210.296,2251.432c0,17.978-14.568,32.555-32.555,32.555H2026.173c-17.976,0-32.545-14.577-32.545-32.555 v-28.48c0-17.977,14.569-32.556,32.545-32.556h1151.568c17.986,0,32.555,14.579,32.555,32.556V2251.432z"></path> <path fill="#EC9568" d="M2710.478,2283.986h-618.597c0,0-161.353,74.396-8.144,198.285 c125.148,101.201,261.851,29.857,331.045,1.369c69.178-28.488,287.562-159.924,287.562-159.924l97.665,11.561l122.097-57.297 c0,0-28.498-16.432-65.118-0.156c-36.633,16.271-56.979,12.12-56.979,12.12l-36.623-20.39l24.422-28.511l12.201-28.493 l-56.979,33.68L2710.478,2283.986z"></path> <path fill="#F7B68B" d="M2756.387,2291.79c0,0-440.347,42.391-550.975,53.578c-73.172,7.408-140.75,38.194-159.649,77.048 c8.26,17.822,14.027,44.82,37.975,59.855c131.392,82.484,243.133,48.575,312.327,20.088 c69.178-28.488,306.279-178.643,306.279-178.643l97.721,11.744C2804.635,2327.033,2764.648,2293.253,2756.387,2291.79z"></path> <path fill="#EC9568" d="M4165.616,2597.681c-28.78,20.107-38.139,35.705-84.936,29.466 c-71.727-9.563-296.086-137.633-402.434-218.377c-168.464-127.904-399.12-489.35-408.123-489.189 c16.051,30.92,305.174,581.947,563.587,676.871C4076.733,2685.723,4129.361,2657.121,4165.616,2597.681z"></path> <g> <path fill="#F7B68B" d="M3430.233,1685.011c121.667,14.039,232.146-46.108,298.499-211.107 c-92.82-37.481-183.276-131.363-187.117-262.043c-5.638-191.36-219.514-16.889-219.514-16.889s47.299,209.27-41.612,279.462 C3257.091,1563.343,3324.412,1672.8,3430.233,1685.011z"></path> <path fill="#212A54" d="M3143.86,988.594c0,0-292.678-71.293-213.876-251.403c78.793-180.11,86.296-63.782,90.051-138.837 c3.758-75.045-37.524-243.899,63.788-221.389c101.312,22.513,176.357,15.007,281.427-45.021 c105.07-60.038,157.597-101.317,191.366,11.251c33.77,112.573,30.022,97.564,150.092,108.82 c120.074,11.256,153.848,33.767,112.58,97.558c-41.283,63.798-101.322,86.309-45.041,150.095 c56.293,63.786,67.544,127.581,22.521,172.607c-45.029,45.026-245.771,129.459-245.771,129.459L3143.86,988.594z"></path> <path fill="#EC9568" d="M3597.901,848.497c0,0,94.986-62.981,117.605-16.277c22.631,46.694,11.793,127.927-23.928,167.621 c-35.716,39.692-78.168,94.869-105.697,3.052C3558.353,911.077,3597.901,848.497,3597.901,848.497z"></path> <path fill="#EC9568" d="M3079.298,1027.442c0,0-44.244-119.52,48.959-108.159c51.515,6.271,114.485,58.265,129.018,109.648 c14.532,51.373,38.543,116.722-53.796,91.031C3111.133,1094.276,3079.298,1027.442,3079.298,1027.442z"></path> <path fill="#EC9568" d="M3557.565,1297.444c-9.342-26.35-15.043-54.938-15.95-85.584 c-5.638-191.36-219.514-16.889-219.514-16.889S3383.439,1511.87,3557.565,1297.444z"></path> <path fill="#F7B68B" d="M3119.476,902.294c0,0,71.81,262.847,196.997,360.226c84.431,65.662,212.012,13.137,287.049-125.703 c73.5-135.962,45.04-605.994-101.305-532.831c-146.346,73.161-22.521-95.684-101.313-39.402 C3322.102,620.865,3451.556,840.381,3119.476,902.294z"></path> <path fill="none" stroke="#212A54" stroke-width="4.2735" stroke-miterlimit="10" d="M3370.342,948.613 c0,58.438-47.38,105.818-105.811,105.818c-58.448,0-105.819-47.381-105.819-105.818c0-58.439,47.371-105.809,105.819-105.809 C3322.962,842.805,3370.342,890.174,3370.342,948.613z"></path> <path fill="none" stroke="#212A54" stroke-width="4.2735" stroke-miterlimit="10" d="M3608.428,900.995 c0,58.439-47.38,105.818-105.817,105.818c-58.45,0-105.817-47.379-105.817-105.818c0-58.438,47.367-105.809,105.817-105.809 C3561.048,795.187,3608.428,842.557,3608.428,900.995z"></path> <line fill="none" stroke="#212A54" stroke-width="4.2735" stroke-miterlimit="10" x1="3361.852" y1="932.024" x2="3417.444" y2="923.223"></line> <path fill="none" stroke="#212A54" stroke-width="4.2735" stroke-miterlimit="10" d="M3372.763,1166.83 c0,0,95.685,28.142,168.853-95.683"></path> </g> </g> </g> </svg> 