<svg width="371" height="394" viewBox="0 0 371 394" fill="none" xmlns="http://www.w3.org/2000/svg">
<path d="M12.7448 392.583H328.52L199.48 46.7698H141.784L12.7448 392.583Z" fill="url(#paint0_linear_2343_2728)"/>
<path d="M175.854 63.9124L170.397 58.448L164.939 63.9124" stroke="#FFCF2D" stroke-miterlimit="10"/>
<path d="M170.397 18.7646V0.463135" stroke="#00A7A7" stroke-miterlimit="10"/>
<path d="M170.397 56.7925C165.544 56.7925 161.61 52.8536 161.61 47.9949C161.61 43.1361 165.544 39.1973 170.397 39.1973C175.25 39.1973 179.184 43.1361 179.184 47.9949C179.184 52.8536 175.25 56.7925 170.397 56.7925Z" fill="#FEC400" stroke="white" stroke-miterlimit="10"/>
<path d="M141.623 47.2514H199.159L198.392 43.7447C195.867 32.1964 184.097 23.8201 170.385 23.8201C163.528 23.8201 157.155 25.9141 152.192 29.4456C147.217 32.977 143.652 37.9582 142.39 43.7323L141.623 47.2514Z" stroke="#00A7A7" stroke-miterlimit="10" stroke-linecap="round"/>
<path d="M21.611 381.096C21.611 383.587 22.0689 385.978 22.9104 388.196C24.1357 391.418 27.2421 393.524 30.695 393.524H56.8951C60.3357 393.524 63.4545 391.418 64.6673 388.196C65.5089 385.978 65.9668 383.587 65.9668 381.096C65.9668 373.909 62.1673 367.565 56.363 363.774V359.585C56.363 361.419 50.7318 362.906 43.8012 362.906C36.8583 362.906 31.2395 361.419 31.2395 359.585V363.786C25.4104 367.565 21.611 373.909 21.611 381.096Z" fill="#7C524F"/>
<path d="M31.2144 362.634V363.749C33.207 365.335 38.6277 366.177 43.7762 366.177C48.9246 366.177 54.3453 365.335 56.3379 363.749V362.634C56.1027 363.166 55.1003 363.86 52.8726 364.443C50.4469 365.087 47.2167 365.434 43.7762 365.434C40.3356 365.434 37.1054 365.087 34.6797 364.443C32.452 363.848 31.4619 363.154 31.2144 362.634Z" fill="white"/>
<path d="M31.2144 359.585C31.2144 361.419 36.8456 362.906 43.7762 362.906C50.7068 362.906 56.3379 361.419 56.3379 359.585C56.3379 359.35 56.2512 359.127 56.078 358.904C54.8899 357.405 49.8404 356.265 43.7762 356.265C37.7119 356.265 32.6624 357.392 31.4743 358.904C31.3134 359.127 31.2144 359.35 31.2144 359.585Z" fill="#66B0F0"/>
<path d="M60.5945 375.83C59.7196 375.83 59.0103 375.12 59.0103 374.244C59.0103 373.368 59.7196 372.658 60.5945 372.658C61.4694 372.658 62.1787 373.368 62.1787 374.244C62.1787 375.12 61.4694 375.83 60.5945 375.83Z" stroke="#FFCF2D" stroke-miterlimit="10"/>
<path d="M55.2235 379.733C54.3486 379.733 53.6393 379.023 53.6393 378.147C53.6393 377.271 54.3486 376.561 55.2235 376.561C56.0984 376.561 56.8076 377.271 56.8076 378.147C56.8076 379.023 56.0984 379.733 55.2235 379.733Z" stroke="#FFCF2D" stroke-miterlimit="10"/>
<path d="M48.5409 375.099C47.666 375.099 46.9568 374.389 46.9568 373.513C46.9568 372.637 47.666 371.927 48.5409 371.927C49.4158 371.927 50.125 372.637 50.125 373.513C50.125 374.389 49.4158 375.099 48.5409 375.099Z" stroke="#FFCF2D" stroke-miterlimit="10"/>
<path d="M49.4813 385.631C48.6064 385.631 47.8972 384.921 47.8972 384.045C47.8972 383.169 48.6064 382.459 49.4813 382.459C50.3562 382.459 51.0654 383.169 51.0654 384.045C51.0654 384.921 50.3562 385.631 49.4813 385.631Z" stroke="#FFCF2D" stroke-miterlimit="10"/>
<path d="M55.4217 390.253C54.5469 390.253 53.8376 389.543 53.8376 388.667C53.8376 387.791 54.5469 387.081 55.4217 387.081C56.2966 387.081 57.0059 387.791 57.0059 388.667C57.0059 389.543 56.2966 390.253 55.4217 390.253Z" stroke="#FFCF2D" stroke-miterlimit="10"/>
<path d="M61.4119 385.631C60.537 385.631 59.8278 384.921 59.8278 384.045C59.8278 383.169 60.537 382.459 61.4119 382.459C62.2868 382.459 62.9961 383.169 62.9961 384.045C62.9961 384.921 62.2868 385.631 61.4119 385.631Z" stroke="#FFCF2D" stroke-miterlimit="10"/>
<path d="M54.3573 369.944C53.4824 369.944 52.7731 369.234 52.7731 368.358C52.7731 367.482 53.4824 366.772 54.3573 366.772C55.2322 366.772 55.9414 367.482 55.9414 368.358C55.9414 369.234 55.2322 369.944 54.3573 369.944Z" stroke="#FFCF2D" stroke-miterlimit="10"/>
<path d="M41.746 371.146C40.8711 371.146 40.1619 370.436 40.1619 369.56C40.1619 368.684 40.8711 367.974 41.746 367.974C42.6208 367.974 43.3301 368.684 43.3301 369.56C43.3301 370.436 42.6208 371.146 41.746 371.146Z" stroke="#FFCF2D" stroke-miterlimit="10"/>
<path d="M43.0702 380.761C42.1953 380.761 41.4861 380.051 41.4861 379.175C41.4861 378.299 42.1953 377.589 43.0702 377.589C43.9451 377.589 44.6543 378.299 44.6543 379.175C44.6543 380.051 43.9451 380.761 43.0702 380.761Z" stroke="#FFCF2D" stroke-miterlimit="10"/>
<path d="M38.491 387.081C37.6161 387.081 36.9068 386.371 36.9068 385.495C36.9068 384.619 37.6161 383.909 38.491 383.909C39.366 383.909 40.0752 384.619 40.0752 385.495C40.0752 386.371 39.366 387.081 38.491 387.081Z" stroke="#FFCF2D" stroke-miterlimit="10"/>
<path d="M44.4315 391.839C43.5567 391.839 42.8474 391.129 42.8474 390.253C42.8474 389.377 43.5567 388.667 44.4315 388.667C45.3064 388.667 46.0156 389.377 46.0156 390.253C46.0156 391.129 45.3064 391.839 44.4315 391.839Z" stroke="#FFCF2D" stroke-miterlimit="10"/>
<path d="M36.7957 376.97C35.9208 376.97 35.2115 376.26 35.2115 375.384C35.2115 374.508 35.9208 373.798 36.7957 373.798C37.6706 373.798 38.3799 374.508 38.3799 375.384C38.3799 376.26 37.6706 376.97 36.7957 376.97Z" stroke="#FFCF2D" stroke-miterlimit="10"/>
<path d="M32.204 370.465C31.3291 370.465 30.6199 369.754 30.6199 368.879C30.6199 368.003 31.3291 367.292 32.204 367.292C33.0788 367.292 33.7881 368.003 33.7881 368.879C33.7881 369.754 33.0788 370.465 32.204 370.465Z" stroke="#FFCF2D" stroke-miterlimit="10"/>
<path d="M26.9813 375.731C26.1064 375.731 25.3971 375.021 25.3971 374.145C25.3971 373.269 26.1064 372.559 26.9813 372.559C27.8562 372.559 28.5654 373.269 28.5654 374.145C28.5654 375.021 27.8562 375.731 26.9813 375.731Z" stroke="#FFCF2D" stroke-miterlimit="10"/>
<path d="M32.9588 380.922C32.0839 380.922 31.3747 380.212 31.3747 379.336C31.3747 378.46 32.0839 377.75 32.9588 377.75C33.8337 377.75 34.543 378.46 34.543 379.336C34.543 380.212 33.8337 380.922 32.9588 380.922Z" stroke="#FFCF2D" stroke-miterlimit="10"/>
<path d="M25.8065 384.243C24.9316 384.243 24.2223 383.533 24.2223 382.657C24.2223 381.781 24.9316 381.071 25.8065 381.071C26.6814 381.071 27.3906 381.781 27.3906 382.657C27.3906 383.533 26.6814 384.243 25.8065 384.243Z" stroke="#FFCF2D" stroke-miterlimit="10"/>
<path d="M30.62 390.34C29.7451 390.34 29.0358 389.63 29.0358 388.754C29.0358 387.878 29.7451 387.168 30.62 387.168C31.4949 387.168 32.2041 387.878 32.2041 388.754C32.2041 389.63 31.4949 390.34 30.62 390.34Z" stroke="#FFCF2D" stroke-miterlimit="10"/>
<path d="M16.0287 340.28C16.0287 340.28 4.27129 333.924 2.32824 345.026C0.0757767 357.851 15.3727 369.139 15.3727 369.139C15.3727 369.139 18.6648 360.973 27.489 353.935C35.1251 347.851 28.7885 331.718 16.0287 340.28Z" fill="white" stroke="#2EA766" stroke-miterlimit="10"/>
<path d="M39.1105 326.142C33.5288 326.192 25.5091 314.842 33.0833 302.389C42.2292 287.346 43.801 278.635 43.801 278.635C43.801 278.635 57.2539 296.453 54.9643 310.121C52.4519 325.089 39.1105 326.142 39.1105 326.142Z" fill="#1A844B"/>
<path d="M38.1447 318.584C29.9889 320.74 22.2415 315.771 22.0806 304.446C21.796 284.422 18.0089 277.904 18.0089 277.904C18.0089 277.904 43.417 287.061 47.2659 301.286C50.9293 314.842 38.1447 318.584 38.1447 318.584Z" fill="white" stroke="#2EA766" stroke-miterlimit="10"/>
<path d="M72.2288 331.768C72.5258 331.793 72.8353 331.817 73.1694 331.842C90.7186 333.156 95.768 349.239 95.768 349.239C95.768 349.239 96.8448 348.074 96.622 344.047C96.2012 333.664 86.6593 322.933 75.7684 329.748C74.5555 330.516 73.3674 331.173 72.2288 331.768Z" fill="#1A844B"/>
<path d="M52.3277 335.721C55.4218 335.919 62.4885 336.774 72.2285 331.768C73.3671 331.186 74.5553 330.516 75.7681 329.748C86.6591 322.933 95.9536 333.664 96.3744 344.047C96.3991 344.555 96.2753 345.063 96.2506 345.559C97.2778 336.538 97.2531 314.086 69.9885 314.842C51.251 315.387 52.3277 335.721 52.3277 335.721Z" fill="white" stroke="#2EA766" stroke-miterlimit="10"/>
<path d="M47.8726 358.929C47.8726 358.929 44.6425 313.863 88.293 319.749" stroke="#2EA766" stroke-miterlimit="10"/>
<path d="M18.009 277.904C45.5088 306.032 40.3851 358.929 40.3851 358.929C43.2811 338.694 25.509 318.584 16.0412 339.748C13.2195 346.042 15.3853 369.127 15.3853 369.127" stroke="#2EA766" stroke-miterlimit="10"/>
<path d="M340.519 323.503L344.207 326.737C344.801 326.031 345.333 325.25 345.791 324.395L368.786 281.498C369.751 279.701 368.452 277.532 366.422 277.532H363.204C360.63 277.532 358.279 278.945 357.066 281.213L338.984 314.941C337.425 317.816 338.068 321.372 340.519 323.503Z" fill="#626262"/>
<path d="M277.92 324.445L331.422 335.448V334.333C331.422 328.992 327.672 324.395 322.449 323.317L287.982 316.229C282.784 315.164 277.92 319.141 277.92 324.445Z" fill="#626262"/>
<path d="M283.985 392.917V339.252C283.985 334.803 288.057 331.483 292.413 332.375L326.014 339.277C330.012 340.094 333.304 342.895 334.764 346.711L352.499 392.917" stroke="#0071E3" stroke-miterlimit="10" stroke-linecap="round"/>
<path d="M368.922 281.262L342.796 329.996C340.556 334.172 335.853 336.377 331.212 335.423L277.797 324.445" stroke="#0071E3" stroke-miterlimit="10" stroke-linecap="round"/>
<path d="M258.948 284.645H304.158V290.692H258.948V284.645Z" fill="#66B0F0"/>
<path d="M267.19 278.078C266.646 278.586 266.312 279.503 266.312 280.271C266.312 281.807 267.648 283.381 269.307 283.381H310.544C310.544 284.1 309.962 284.682 309.244 284.682H259.48C258.143 284.682 256.943 284.186 256.064 283.369C255.186 282.563 254.653 281.436 254.653 280.197C254.653 277.718 256.819 275.723 259.48 275.723H309.244C309.962 275.723 310.544 276.306 310.544 277.024V277.26H269.307C268.478 277.272 267.735 277.582 267.19 278.078Z" fill="#A44E47"/>
<path d="M307.561 277.272V283.269H310.531V283.765H269.158C268.7 283.765 268.254 283.678 267.858 283.517C267.413 283.344 267.017 283.071 266.695 282.749C266.064 282.117 265.668 281.237 265.668 280.271C265.668 278.338 267.24 276.777 269.158 276.777H310.531V277.272H307.561V277.272Z" fill="#A44E47"/>
<path d="M308.712 277.272V283.27H269.306C267.648 283.27 266.311 281.931 266.311 280.271C266.311 279.441 266.646 278.697 267.19 278.152C267.735 277.607 268.477 277.272 269.306 277.272H308.712V277.272Z" fill="white"/>
<path d="M308.712 277.272V283.27" stroke="#C15D55" stroke-miterlimit="10"/>
<path d="M274.814 281.522V286.528H271.361V282.167C271.361 281.126 270.52 280.283 269.48 280.283H267.946V279.639H272.946C273.96 279.639 274.814 280.481 274.814 281.522Z" fill="#FFCF2D"/>
<path d="M329.541 295.871C329.541 293.232 327.4 291.088 324.764 291.088H230.829C228.193 291.088 226.052 293.232 226.052 295.871" stroke="#0071E3" stroke-miterlimit="10" stroke-linecap="round"/>
<path d="M225.978 392.917L252.5 300.431C253.675 296.342 257.722 293.492 262.351 293.492H293.254C297.883 293.492 301.93 296.342 303.106 300.431L329.615 392.917" stroke="#0071E3" stroke-miterlimit="10" stroke-linecap="round"/>
<path d="M209.617 374.424V389.998C209.617 391.615 208.316 392.918 206.701 392.918H167.813C167.813 392.918 167.584 385.689 173.503 383.671C183.554 380.25 188.243 374.424 188.243 374.424H209.617V374.424Z" fill="white" stroke="#0071E3" stroke-miterlimit="10"/>
<path d="M187.986 382.397C186.399 381.953 180.681 378.789 182.639 376.828C183.569 375.898 185.799 376.828 185.799 376.828" stroke="#0071E3" stroke-miterlimit="10"/>
<path d="M182.124 384.544C180.537 384.1 175.047 380.564 177.206 378.832C178.836 377.516 181.28 380.063 181.28 380.063" stroke="#0071E3" stroke-miterlimit="10"/>
<path d="M187.042 375.684L209.617 382.712V374.424H188.229C188.229 374.424 187.843 374.911 187.042 375.684Z" fill="#0071E3"/>
<path d="M160.865 374.424V389.997C160.865 391.615 159.564 392.917 157.949 392.917H119.061C119.061 392.917 118.832 385.689 124.751 383.67C134.802 380.249 139.491 374.424 139.491 374.424H160.865V374.424Z" fill="white" stroke="#0071E3" stroke-miterlimit="10"/>
<path d="M139.234 382.396C137.647 381.953 131.929 378.789 133.887 376.828C134.817 375.898 137.047 376.828 137.047 376.828" stroke="#0071E3" stroke-miterlimit="10"/>
<path d="M133.373 384.544C131.786 384.1 126.296 380.564 128.455 378.832C130.085 377.515 132.53 380.063 132.53 380.063" stroke="#0071E3" stroke-miterlimit="10"/>
<path d="M138.29 375.683L160.865 382.711V374.424H139.477C139.477 374.424 139.091 374.91 138.29 375.683Z" fill="#0071E3"/>
<path d="M199.108 219.402L213.19 367.009H183.739L168.942 295.481L162.894 310.726V367.009H132.227V303.898L148.583 219.402H199.108Z" fill="#2A71B9"/>
<path d="M183.766 254.858L197.463 367.009" stroke="#7AABDC" stroke-miterlimit="10"/>
<path d="M148.097 367.009V303.898L167.312 226.56" stroke="#7AABDC" stroke-miterlimit="10"/>
<path d="M163.323 310.726L181.68 257.349C182.309 255.517 184.039 254.286 185.983 254.286" stroke="white" stroke-miterlimit="10"/>
<path d="M201.438 243.808L199.107 219.402H148.582L147.138 226.903L201.438 243.808Z" fill="#7AABDC"/>
<path d="M132.169 374.423H163.008C164.166 374.423 165.109 373.479 165.109 372.319V369.113C165.109 367.953 164.166 367.009 163.008 367.009H132.169C131.011 367.009 130.068 367.953 130.068 369.113V372.319C130.082 373.479 131.011 374.423 132.169 374.423Z" fill="#7AABDC"/>
<path d="M183.209 374.423H214.048C215.206 374.423 216.149 373.479 216.149 372.319V369.113C216.149 367.953 215.206 367.009 214.048 367.009H183.209C182.051 367.009 181.108 367.953 181.108 369.113V372.319C181.122 373.479 182.051 374.423 183.209 374.423Z" fill="#7AABDC"/>
<path d="M100.904 223.725L91.2389 259.926L139.419 272.823L149.098 236.594C149.399 235.463 150.128 234.575 151.057 234.031C151.986 233.488 153.13 233.301 154.259 233.602C156.504 234.203 157.848 236.522 157.247 238.769L147.569 274.998L148.626 275.285L158.291 239.084C159.063 236.207 157.405 233.259 154.574 232.4C154.517 232.385 154.46 232.371 154.402 232.357L107.623 219.832C104.692 219.059 101.69 220.805 100.904 223.725Z" fill="#66B0F0"/>
<path d="M148.026 236.35L138.361 272.551L139.419 272.837L149.098 236.608C149.398 235.477 150.128 234.59 151.057 234.046C151.986 233.502 153.13 233.316 154.259 233.616C156.504 234.218 157.848 236.537 157.247 238.784L147.568 275.013L148.626 275.299L158.291 239.099C159.063 236.222 157.405 233.273 154.574 232.414C151.7 231.741 148.798 233.473 148.026 236.35Z" fill="#9A3B82"/>
<path d="M149.098 236.594L140.02 270.604L148.169 272.78L157.247 238.77C157.848 236.522 156.518 234.203 154.259 233.602C153.13 233.302 151.986 233.488 151.057 234.032C150.128 234.576 149.399 235.463 149.098 236.594Z" fill="white"/>
<path d="M100.76 242.906L122.677 250.464L139.977 219.402H207.029C218.424 219.402 226.945 208.91 224.614 197.745L217.637 164.193C215.45 153.687 206.2 146.157 195.491 146.157H149.641C138.533 146.157 129.068 154.231 127.31 165.209L120.404 197.874L100.76 242.906Z" fill="#B2BECB" stroke="#B2BECB" stroke-miterlimit="10"/>
<path d="M210.603 219.045C218.495 217.456 224.357 210.728 224.957 202.798C224.357 202.383 223.685 202.025 222.97 201.767C217.78 199.849 211.847 202.998 209.688 208.796C208.358 212.431 208.816 216.239 210.603 219.045Z" fill="#B2BECB"/>
<path d="M160.679 126.032V146.172H182.882L177.764 132.774L160.679 126.032Z" fill="#FFB775"/>
<path d="M155.575 117.558C155.589 117.558 155.618 117.572 155.632 117.572L162.223 119.319C164.582 119.949 166.397 121.695 167.169 123.899H169.7C171.301 123.899 172.602 125.202 172.602 126.805V126.848C172.602 128.365 171.444 129.611 169.957 129.739C169.972 129.754 169.972 129.754 169.972 129.754C169.972 129.754 171.144 135.336 177.992 133.461C177.992 133.461 177.721 118.775 177.435 114.209C177.192 110.444 157.247 103.316 155.403 106.35C153.773 109.041 155.66 110.301 157.262 110.859C154.431 110.258 149.084 109.456 148.541 111.847C147.912 114.624 153.559 117.028 155.575 117.558Z" fill="#9A3B82"/>
<path d="M154.288 127.85H154.988L154.788 131.285C154.645 133.747 156.618 135.837 159.077 135.837H162.165C165.139 135.837 167.555 133.418 167.555 130.441V129.768H169.686C171.287 129.768 172.588 128.465 172.588 126.862V126.819C172.588 125.216 171.287 123.913 169.686 123.913H167.155C166.383 121.709 164.567 119.948 162.208 119.333L155.617 117.587L153.359 126.647C153.13 127.22 153.673 127.85 154.288 127.85Z" fill="#FFB775"/>
<path d="M166.882 130.712C167.183 133.861 164.037 136.109 161.064 136.109" stroke="#9A3B82" stroke-miterlimit="10" stroke-linecap="round"/>
<path d="M168.041 127.349C168.041 126.232 168.942 125.331 170.057 125.331" stroke="#9A3B82" stroke-miterlimit="10" stroke-linecap="round"/>
<path d="M156.718 125.302C156.426 125.302 156.189 124.809 156.189 124.2C156.189 123.591 156.426 123.098 156.718 123.098C157.01 123.098 157.247 123.591 157.247 124.2C157.247 124.809 157.01 125.302 156.718 125.302Z" fill="#9A3B82"/>
<path d="M159.006 121.881C159.006 121.881 157.247 120.535 154.731 120.535" stroke="#9A3B82" stroke-miterlimit="10" stroke-linecap="round"/>
<path d="M165.811 228.578C165.811 228.578 148.297 229.336 142.135 215.266L145.395 209.297L155.131 213.047L165.811 228.578Z" fill="white" stroke="#7E4742" stroke-miterlimit="10"/>
<path d="M151.785 142.478C152.629 142.55 153.401 142.922 153.973 143.495C154.602 144.124 155.002 144.998 155.002 145.971V216.496C155.002 223.224 160.449 228.677 167.169 228.677H194.175C201.438 228.677 207.043 222.365 206.271 215.194V215.179L196.549 148.233C196.063 144.926 193.246 142.478 189.901 142.478H151.785V142.478Z" fill="#7E4742" stroke="#7E4742" stroke-miterlimit="10"/>
<path d="M154.504 142.479C155.348 142.55 156.12 142.923 156.692 143.495C157.221 144.025 157.578 144.712 157.678 145.485C157.692 145.642 157.707 145.8 157.707 145.957L158.279 151.354L165.141 216.482C165.141 223.21 170.588 228.664 177.308 228.664H194.164C201.427 228.664 207.031 222.351 206.259 215.18V215.166L201.87 184.906L196.537 148.219C196.494 147.904 196.423 147.589 196.337 147.274C195.508 144.454 192.906 142.465 189.903 142.465H154.504V142.479Z" fill="white" stroke="#7E4742" stroke-miterlimit="10"/>
<path d="M160.521 156.521L163.08 175.745C163.924 179.681 166.983 181.785 171.415 182.501L201.725 186.91L197.307 156.507H160.521V156.521Z" fill="#FFCF2D"/>
<path d="M155.589 142.479H156.346C157.719 142.465 158.92 143.438 159.191 144.798L163.652 173.612C164.496 177.548 167.97 180.368 171.987 180.368H199.88C203.254 180.368 205.771 177.248 205.041 173.941L199.666 149.493C198.765 145.399 195.134 142.479 190.945 142.479H155.589Z" fill="#7E4742" stroke="#7E4742" stroke-miterlimit="10"/>
<path d="M178.578 188.384L171.473 144.884C171.33 144.011 170.572 143.352 169.685 143.352C168.57 143.352 167.712 144.354 167.898 145.471L175.004 188.971C175.147 189.844 175.905 190.503 176.791 190.503C177.906 190.503 178.764 189.501 178.578 188.384Z" fill="white" stroke="#7E4742" stroke-miterlimit="10"/>
<path d="M194.461 188.384L187.355 144.884C187.212 144.011 186.455 143.352 185.568 143.352C184.453 143.352 183.595 144.354 183.781 145.471L190.887 188.971C191.03 189.844 191.787 190.503 192.674 190.503C193.789 190.503 194.647 189.501 194.461 188.384Z" fill="white" stroke="#7E4742" stroke-miterlimit="10"/>
<path d="M147.996 146.186L154.987 146.215V145.972C154.987 144.998 154.601 144.125 153.958 143.495C153.386 142.923 152.628 142.551 151.771 142.479H151.199C149.44 142.622 148.053 144.111 147.996 146.186Z" fill="white" stroke="#7E4742" stroke-miterlimit="10"/>
<path d="M103.377 243.808L97.4864 259.024C96.5428 261.471 97.9153 264.191 100.432 264.893L113.37 268.442C114.157 268.657 114.986 268.471 115.601 267.941L116.916 266.796L114.228 266.081C113.041 265.766 112.241 264.663 112.298 263.432L112.598 260.398C112.655 259.038 113.756 257.95 115.114 257.907H114.971C116.616 257.85 118.217 256.834 118.86 255.316L120.919 249.834L103.377 243.808Z" fill="#FFB775"/>
<path d="M116.644 267.097L114.528 266.524C113.341 266.209 112.54 265.25 112.598 264.019L112.755 260.698C112.812 259.339 113.913 258.251 115.271 258.208C116.915 258.15 118.374 257.134 119.017 255.617L121.219 250.421" stroke="white" stroke-miterlimit="10" stroke-linecap="round"/>
<path d="M109.725 267.068C108.209 266.668 107.18 265.265 107.251 263.69L107.451 259.453" stroke="white" stroke-miterlimit="10" stroke-linecap="round"/>
<path d="M104.248 265.651C102.733 265.25 101.703 263.848 101.775 262.273L101.975 258.036" stroke="white" stroke-miterlimit="10" stroke-linecap="round"/>
<path d="M153.229 180.368L149.77 198.49C149.183 201.582 148.097 204.573 146.567 207.322L122.691 250.464L100.774 242.906" stroke="white" stroke-miterlimit="10"/>
<path d="M138.747 221.464L146.567 207.321C147.882 204.931 148.869 202.383 149.498 199.735C148.755 199.492 147.983 199.32 147.168 199.248C140.991 198.704 135.516 203.9 134.93 210.843C134.586 215.051 136.116 218.93 138.747 221.464Z" fill="white"/>
<defs>
<linearGradient id="paint0_linear_2343_2728" x1="170.632" y1="46.7698" x2="265" y2="315" gradientUnits="userSpaceOnUse">
<stop stop-color="#FFF9CF"/>
<stop offset="1" stop-color="#FFF9CF" stop-opacity="0"/>
</linearGradient>
</defs>
</svg>
